<?xml version="1.0" standalone="no"?>
<!DOCTYPE svg PUBLIC "-//W3C//DTD SVG 20010904//EN"
 "http://www.w3.org/TR/2001/REC-SVG-20010904/DTD/svg10.dtd">
<svg version="1.0" xmlns="http://www.w3.org/2000/svg"
 width="260.000000pt" height="260.000000pt" viewBox="0 0 260.000000 260.000000"
 preserveAspectRatio="xMidYMid meet">
<metadata>
Created by potrace 1.14, written by Peter Selinger 2001-2017
</metadata>
<g transform="translate(0.000000,260.000000) scale(0.100000,-0.100000)"
fill="#000000" stroke="none">
<path d="M1055 2469 c-149 -22 -342 -95 -461 -177 -33 -22 -99 -82 -149 -133
-143 -149 -233 -323 -274 -526 -26 -125 -26 -144 -1 -195 11 -23 19 -42 17
-43 -1 -1 -17 -8 -36 -15 -79 -32 -121 -90 -121 -169 0 -42 4 -53 26 -70 32
-25 71 -27 103 -5 32 23 43 7 39 -61 -3 -55 -5 -59 -33 -68 -77 -25 -135 -95
-135 -165 0 -53 13 -80 46 -92 21 -8 24 -16 24 -61 0 -61 19 -104 65 -149 l35
-34 0 -98 c0 -60 5 -111 13 -131 16 -38 87 -104 119 -112 13 -3 451 -4 974 -3
l951 3 37 29 c57 43 76 93 76 205 l0 94 40 35 c49 41 80 98 80 146 0 27 5 36
23 41 44 14 67 45 67 92 0 24 -7 57 -15 72 -21 42 -97 105 -144 121 l-41 13 0
64 c0 34 3 63 6 63 3 0 19 -9 35 -21 17 -12 47 -23 69 -26 110 -15 122 144 18
232 -18 16 -52 37 -76 47 l-43 19 21 29 c29 41 34 86 21 167 -28 159 -113 364
-200 482 -56 75 -155 173 -221 218 -68 46 -217 118 -293 142 -119 36 -244 51
-429 50 -95 -1 -200 -5 -233 -10z m473 -65 c231 -34 398 -112 546 -253 151
-145 256 -348 291 -563 12 -75 12 -86 -3 -118 -9 -19 -28 -40 -42 -47 -20 -10
-243 -12 -1037 -10 l-1011 2 -25 23 c-37 35 -40 61 -17 170 40 199 120 360
246 501 138 153 374 270 609 300 115 14 329 12 443 -5z m863 -1082 c91 -36
155 -116 125 -157 -16 -22 -51 -8 -104 40 -39 35 -40 35 -75 20 -50 -21 -70
-19 -127 10 -61 31 -104 31 -152 2 -20 -12 -56 -35 -81 -50 -54 -33 -139 -53
-188 -43 -20 3 -67 26 -105 51 -89 57 -127 59 -220 10 -36 -19 -73 -35 -82
-35 -30 1 -103 39 -152 80 l-48 40 -51 -31 c-73 -46 -131 -49 -227 -14 -93 34
-115 31 -234 -29 -66 -34 -101 -46 -133 -46 -49 0 -104 31 -123 69 -22 44 -33
47 -45 13 -21 -60 -104 -80 -168 -41 l-34 21 -24 -26 c-27 -30 -36 -32 -52
-12 -8 10 -9 21 -1 42 23 59 66 88 152 103 29 5 507 8 1073 8 l1020 -2 56 -23z
m-20 -368 c70 -20 133 -70 149 -120 22 -66 -29 -89 -67 -29 -12 18 -44 46 -70
62 -45 26 -57 28 -176 32 -151 4 -146 7 -232 -124 -60 -90 -94 -115 -155 -115
-40 0 -47 5 -119 80 -110 115 -138 120 -235 46 -37 -28 -57 -36 -88 -36 -38 0
-47 6 -113 75 l-72 75 -450 0 c-504 0 -525 -2 -586 -65 -40 -41 -64 -45 -73
-11 -6 27 13 72 44 99 50 46 48 46 1146 46 930 1 1046 -1 1097 -15z m-61 -554
c0 -86 -18 -133 -62 -160 -32 -20 -48 -20 -961 -20 -987 0 -959 -1 -998 46 -9
11 -16 51 -19 111 l-5 93 1023 0 1022 0 0 -70z"/>
<path d="M842 2150 c0 -19 2 -27 5 -17 2 9 2 25 0 35 -3 9 -5 1 -5 -18z"/>
<path d="M922 1975 c0 -16 2 -22 5 -12 2 9 2 23 0 30 -3 6 -5 -1 -5 -18z"/>
<path d="M2071 1944 c0 -11 3 -14 6 -6 3 7 2 16 -1 19 -3 4 -6 -2 -5 -13z"/>
</g>
</svg>
